<?xml version="1.0" encoding="UTF-8"?><svg xmlns="http://www.w3.org/2000/svg" width="19" height="19" viewBox="0 0 19 19"><g fill="none" fill-rule="evenodd"><path fill="#EA4335" d="M2.5 5a2.5 2.5 0 1 1 0-5 2.5 2.5 0 0 1 0 5zm14 0a2.5 2.5 0 1 1 0-5 2.5 2.5 0 0 1 0 5zm-7 0a2.5 2.5 0 1 1 0-5 2.5 2.5 0 0 1 0 5z"/><circle cx="2.5" cy="9.5" r="2.5" fill="#FBBC05"/><path fill="#669DF6" d="M16.5 12a2.5 2.5 0 1 1 0-5 2.5 2.5 0 0 1 0 5zm-7 0a2.5 2.5 0 1 1 0-5 2.5 2.5 0 0 1 0 5zm7 7a2.5 2.5 0 1 1 0-5 2.5 2.5 0 0 1 0 5z"/><path fill="#34A853" d="M2.5 19a2.5 2.5 0 1 1 0-5 2.5 2.5 0 0 1 0 5zm7 0a2.5 2.5 0 1 1 0-5 2.5 2.5 0 0 1 0 5z"/></g></svg>