<?xml version="1.0" encoding="UTF-8"?><svg xmlns="http://www.w3.org/2000/svg" width="32" height="32" viewBox="0 0 32 32"><g fill="none" fill-rule="evenodd"><path fill="#4285F4" fill-rule="nonzero" d="M21.776 24.35c1.654-1.185 2.787-2.988 3.29-5.35H16v-6h15.083c.184.972.28 1.975.28 3 0 5.23-1.778 9.36-4.736 12.113L22 28l-.224-3.65z"/><path fill="#FBBC05" d="m7 26-5.285-2.785A15.933 15.933 0 0 1 0 16c0-2.596.618-5.047 1.715-7.215L7 7l-.399 5.576A9.981 9.981 0 0 0 6 16c0 1.203.212 2.356.601 3.424L7 26z"/><path fill="#34A853" d="M26.627 28.113C23.919 30.633 20.223 32 16 32c-6.24 0-11.647-3.573-14.285-8.785l4.886-3.791A10.004 10.004 0 0 0 16 26c2.307 0 4.26-.565 5.776-1.65l4.85 3.763z"/><path fill="#EA4335" d="m6.601 12.576-4.886-3.79C4.353 3.572 9.76 0 16 0c4.131 0 8.455 1.818 10.736 4.137L22.46 8.345C21.25 7.116 18.427 6 16 6c-4.32 0-8 2.74-9.399 6.576z"/></g></svg>