<?xml version="1.0" encoding="UTF-8"?><svg xmlns="http://www.w3.org/2000/svg" width="16" height="16" viewBox="0 0 16 16"><g fill="none" fill-rule="evenodd"><path fill="#4285F4" d="m11 14-.112-1.825c.706-.506 1.222-1.237 1.515-2.175H8.085L8 9.934V7h7.62c.04.328.062.661.062 1 0 2.615-.89 4.68-2.369 6.057L11 14z"/><path fill="#FBBC05" d="M3.3 9.712 3 12l-2.142-.393A7.966 7.966 0 0 1 0 8c0-1.298.309-2.523.858-3.607L3 4l.3 2.288A4.99 4.99 0 0 0 3 8c0 .601.106 1.178.3 1.712z"/><path fill="#34A853" d="m10.888 12.175 2.425 1.882C11.96 15.317 10.112 16 8 16a8 8 0 0 1-7.142-4.393L3.3 9.712A5.002 5.002 0 0 0 8 13c1.154 0 2.13-.283 2.888-.825z"/><path fill="#EA4335" d="M.858 4.393A8 8 0 0 1 8 0c2.066 0 4.227.91 5.368 2.068L11.23 4.173C10.625 3.558 9.214 3 8 3 5.84 3 4 4.37 3.3 6.288L.859 4.393z"/></g></svg>