<?xml version="1.0" encoding="UTF-8"?><svg xmlns="http://www.w3.org/2000/svg" width="16" height="16" viewBox="0 0 16 16"><g fill="none" fill-rule="evenodd"><circle cx="8" cy="8" r="8" fill="#FFF"/><path fill="#FBBC05" d="m4 11-1.357-.294A5.975 5.975 0 0 1 2 8c0-.973.232-1.893.643-2.706L4 5l.589 1.804A3.608 3.608 0 0 0 4.386 8c0 .42.072.822.203 1.196L4 11z"/><path fill="#4285F4" d="m10 13 .053-1.956c.634-.44 1.06-1.129 1.233-2.044H8V7h5.678c.055.325.083.66.083 1 0 1.961-.667 3.51-1.776 4.542L10 13z"/><path fill="#EA4335" fill-rule="nonzero" d="M2.643 5.294A6 6 0 0 1 8 2c1.55 0 3.17.682 4.026 1.551l-1.7 1.674C9.897 4.791 8.874 4.386 8 4.386a3.615 3.615 0 0 0-3.411 2.418l-1.946-1.51z"/><path fill="#34A853" fill-rule="nonzero" d="M11.985 12.542C10.97 13.488 9.584 14 8 14a6 6 0 0 1-5.357-3.294l1.946-1.51A3.615 3.615 0 0 0 8 11.614c.819 0 1.512-.195 2.053-.57l1.932 1.498z"/></g></svg>