<?xml version="1.0" encoding="UTF-8"?><svg xmlns="http://www.w3.org/2000/svg" width="19" height="19" viewBox="0 0 19 19"><g fill="none" fill-rule="evenodd"><circle cx="9.5" cy="9.5" r="9.5" fill="#F1F1F1"/><path fill="#FBBC05" d="m5 13-1.898-.118A7.469 7.469 0 0 1 2.298 9.5c0-1.217.29-2.366.804-3.382L6 5l-.451 3.016c-.163.465-.25.964-.25 1.484s.087 1.02.25 1.484L5 13z"/><path fill="#4285F4" d="m12.5 15-.15-1.706c.732-.506 1.241-1.278 1.485-2.294H10V8h6.85c.098.485.15.986.15 1.5 0 2.452-.834 4.388-2.22 5.678L12.5 15z"/><path fill="#34A853" d="m12.35 13.294 2.43 1.884C13.51 16.36 11.778 17 9.798 17a7.5 7.5 0 0 1-6.696-4.118l2.447-1.898A4.502 4.502 0 0 0 9.799 14c1.017 0 1.879-.24 2.552-.706z"/><path fill="#EA4335" d="M5.549 8.016 3.102 6.118A7.5 7.5 0 0 1 9.798 2c1.937 0 3.963.852 5.033 1.939l-2.138 2.104C12.162 5.504 10.887 5 9.798 5a4.502 4.502 0 0 0-4.25 3.016z"/></g></svg>