<?xml version="1.0" encoding="UTF-8"?><svg xmlns="http://www.w3.org/2000/svg" width="32" height="32" viewBox="0 0 32 32"><g fill="none" fill-rule="evenodd"><circle cx="16" cy="16" r="16" fill="#FFF"/><path fill="#FBBC05" d="m9 22-3.714-.589A11.95 11.95 0 0 1 4 16c0-1.947.464-3.785 1.286-5.411L9 10l.368 3.755A6.992 6.992 0 0 0 9 16c0 .785.13 1.54.368 2.245L9 22z"/><path fill="#4285F4" d="m20 25-.082-3.06c.997-.672 1.732-1.658 2.162-2.94h-5.953L16 18.901V14h11.357c.109.65.166 1.319.166 2 0 3.923-1.334 7.02-3.553 9.085L20 25z"/><path fill="#34A853" d="m19.918 21.94 4.052 3.145C21.94 26.975 19.167 28 16 28a12 12 0 0 1-10.714-6.589l4.082-3.166A7.003 7.003 0 0 0 16 23c1.56 0 2.88-.36 3.918-1.06z"/><path fill="#EA4335" d="M5.286 10.589A12 12 0 0 1 16 4c3.099 0 6.34 1.364 8.052 3.102l-3.564 3.508C19.678 9.786 17.69 9 16 9a7.003 7.003 0 0 0-6.632 4.755L5.286 10.59z"/></g></svg>