<?xml version="1.0" encoding="UTF-8"?><svg xmlns="http://www.w3.org/2000/svg" xmlns:x="http://www.w3.org/1999/xlink" viewBox="0 0 38 38"><defs><filter id="a" width="115.8%" height="115.8%" x="-7.9%" y="-7.9%" filterUnits="objectBoundingBox"><feOffset in="SourceAlpha" result="shadowOffsetOuter1"/><feGaussianBlur in="shadowOffsetOuter1" result="shadowBlurOuter1" stdDeviation="1"/><feColorMatrix in="shadowBlurOuter1" values="0 0 0 0 0 0 0 0 0 0 0 0 0 0 0 0 0 0 0.2 0"/></filter><filter id="c" width="110.5%" height="110.5%" x="-5.3%" y="-5.3%" filterUnits="objectBoundingBox"><feOffset in="SourceAlpha" result="shadowOffsetInner1"/><feComposite in="shadowOffsetInner1" in2="SourceAlpha" k2="-1" k3="1" operator="arithmetic" result="shadowInnerInner1"/><feColorMatrix in="shadowInnerInner1" result="shadowMatrixInner1" values="0 0 0 0 0 0 0 0 0 0 0 0 0 0 0 0 0 0 0.2 0"/><feOffset in="SourceAlpha" result="shadowOffsetInner2"/><feComposite in="shadowOffsetInner2" in2="SourceAlpha" k2="-1" k3="1" operator="arithmetic" result="shadowInnerInner2"/><feColorMatrix in="shadowInnerInner2" result="shadowMatrixInner2" values="0 0 0 0 1 0 0 0 0 1 0 0 0 0 1 0 0 0 0.25 0"/><feMerge><feMergeNode in="shadowMatrixInner1"/><feMergeNode in="shadowMatrixInner2"/></feMerge></filter><linearGradient id="d" x1="0%" x2="100%" y1="0%" y2="100%"><stop offset="0%"/><stop offset="100%" stop-opacity="0"/></linearGradient><rect id="b" width="38" height="38" x="0" y="0" rx="4"/></defs><g fill="none" fill-rule="evenodd"><use fill="#000" filter="url(#a)" x:href="#b"/><use fill="#2196F3" x:href="#b"/><use fill="#000" filter="url(#c)" x:href="#b"/><path fill="#1565C0" fill-rule="nonzero" d="M29 29H9V9h10V6H9a3 3 0 0 0-3 3v20a3 3 0 0 0 3 3h20c1.65 0 3-1.35 3-3V19h-3v10z"/><path fill="url(#d)" fill-opacity=".2" fill-rule="nonzero" d="M53 27 33.14 44.745 14.255 25.86 25 12l-3-3 10-3z"/><path fill="#FFF" fill-rule="nonzero" d="M22 6v3h4.885L12.14 23.745l2.115 2.115L29 11.115V16h3V6z"/></g></svg>