<?xml version="1.0" encoding="UTF-8"?><svg xmlns="http://www.w3.org/2000/svg" xmlns:x="http://www.w3.org/1999/xlink" width="16" height="16" viewBox="0 0 16 16"><defs><filter id="a" width="118.8%" height="118.8%" x="-9.4%" y="-9.4%" filterUnits="objectBoundingBox"><feOffset in="SourceAlpha" result="shadowOffsetOuter1"/><feGaussianBlur in="shadowOffsetOuter1" result="shadowBlurOuter1" stdDeviation=".5"/><feColorMatrix in="shadowBlurOuter1" values="0 0 0 0 0 0 0 0 0 0 0 0 0 0 0 0 0 0 0.2 0"/></filter><filter id="c" width="112.5%" height="112.5%" x="-6.2%" y="-6.2%" filterUnits="objectBoundingBox"><feOffset in="SourceAlpha" result="shadowOffsetInner1"/><feComposite in="shadowOffsetInner1" in2="SourceAlpha" k2="-1" k3="1" operator="arithmetic" result="shadowInnerInner1"/><feColorMatrix in="shadowInnerInner1" result="shadowMatrixInner1" values="0 0 0 0 0 0 0 0 0 0 0 0 0 0 0 0 0 0 0.2 0"/><feOffset in="SourceAlpha" result="shadowOffsetInner2"/><feComposite in="shadowOffsetInner2" in2="SourceAlpha" k2="-1" k3="1" operator="arithmetic" result="shadowInnerInner2"/><feColorMatrix in="shadowInnerInner2" result="shadowMatrixInner2" values="0 0 0 0 1 0 0 0 0 1 0 0 0 0 1 0 0 0 0.25 0"/><feMerge><feMergeNode in="shadowMatrixInner1"/><feMergeNode in="shadowMatrixInner2"/></feMerge></filter><linearGradient id="d" x1="7.778%" x2="86.101%" y1="7.801%" y2="88.258%"><stop offset="0%" stop-opacity=".2"/><stop offset="100%" stop-opacity="0"/></linearGradient><rect id="b" width="16" height="16" x="0" y="0" rx="1.5"/></defs><g fill="none" fill-rule="evenodd"><use fill="#000" filter="url(#a)" x:href="#b"/><use fill="#2196F3" x:href="#b"/><use fill="#000" filter="url(#c)" x:href="#b"/><path fill="#1565C0" fill-rule="nonzero" d="M12 12V8h2v4c0 1.1-.9 2-2 2H4a2 2 0 0 1-2-2V4a2 2 0 0 1 2-2h4v2H4v8h8z"/><path fill="url(#d)" fill-rule="nonzero" d="m23 11-8.43 7.372-7.942-7.942L11 5.5l-2-2L14 2z"/><path fill="#FFF" fill-rule="nonzero" d="M9 2h5v5h-1.5V4.558L6.628 10.43 5.57 9.373 11.443 3.5H9z"/></g></svg>